<svg width="64" height="64" viewBox="0 0 64 64" fill="none" xmlns="http://www.w3.org/2000/svg" role="img" aria-label="Saken">
  <rect width="64" height="64" rx="14" fill="#1e3a5f"/>
  <!-- residential building / ledger mark -->
  <rect x="16" y="14" width="20" height="36" rx="2" fill="#e9eef5"/>
  <rect x="36" y="24" width="14" height="26" rx="2" fill="#7aa7d6"/>
  <!-- windows (apartments / shares) -->
  <rect x="20" y="19" width="4" height="4" rx="0.8" fill="#1e3a5f"/>
  <rect x="28" y="19" width="4" height="4" rx="0.8" fill="#1e3a5f"/>
  <rect x="20" y="27" width="4" height="4" rx="0.8" fill="#1e3a5f"/>
  <rect x="28" y="27" width="4" height="4" rx="0.8" fill="#1e3a5f"/>
  <rect x="20" y="35" width="4" height="4" rx="0.8" fill="#1e3a5f"/>
  <rect x="28" y="35" width="4" height="4" rx="0.8" fill="#1e3a5f"/>
  <rect x="40" y="29" width="3.5" height="3.5" rx="0.8" fill="#1e3a5f"/>
  <rect x="46" y="29" width="3.5" height="3.5" rx="0.8" fill="#1e3a5f"/>
  <rect x="40" y="36" width="3.5" height="3.5" rx="0.8" fill="#1e3a5f"/>
  <rect x="46" y="36" width="3.5" height="3.5" rx="0.8" fill="#1e3a5f"/>
</svg>
